<?xml version="1.0" encoding="utf-8"?>
<!-- Generator: Adobe Illustrator 25.4.1, SVG Export Plug-In . SVG Version: 6.00 Build 0)  -->
<svg version="1.1" id="Capa_1" xmlns="http://www.w3.org/2000/svg" xmlns:xlink="http://www.w3.org/1999/xlink" x="0px" y="0px"
	 viewBox="0 0 800 800" style="enable-background:new 0 0 800 800;" xml:space="preserve">
<g>
	<path d="M642,554.6h-14.6c0.3-1.3,0.2-2.6-0.2-3.9l-12-37c-0.6-1.9-2-3.5-3.8-4.4V350.8c1.6-0.7,2.9-1.9,3.7-3.5l16.5-32.9h3.3
		c4.1,0,7.4-3.3,7.4-7.4v-41c0-4.1-3.3-7.4-7.4-7.4h-14.6v-3.7c0-15.6-12.7-28.3-28.3-28.3H583c-0.6-0.7-1.4-1.3-2.3-1.8
		l-178.5-91.2c-2.3-1.2-5.1-1.2-7.4,0l-178.5,91.2c-0.9,0.5-1.7,1.1-2.3,1.8h-11.2c-15.6,0-28.3,12.7-28.3,28.3v3.7H158
		c-4.1,0-7.4,3.3-7.4,7.4v41c0,4.1,3.3,7.4,7.4,7.4h18.6l10.3,31.9c0.5,1.5,1.4,2.8,2.6,3.7v159.8c-1.1,0.7-2,1.7-2.6,2.9l-18.6,37
		c-0.8,1.5-1,3.3-0.6,4.9H165c-4.1,0-7.4,3.3-7.4,7.4v41c0,4.1,3.3,7.4,7.4,7.4h477c4.1,0,7.4-3.3,7.4-7.4v-41
		C649.4,557.9,646.1,554.6,642,554.6z M398.5,149.9l144.8,74H253.7L398.5,149.9z M369.4,351.4h66.1v157.1h-66.1V351.4z M442.9,336.6
		h-78.5l-7.2-22.1H454L442.9,336.6z M363.2,523.4h78.5l7.2,22.1h-96.8L363.2,523.4z M466.2,550.7l-12-37c-0.6-1.9-2-3.5-3.8-4.4
		V350.8c1.6-0.7,2.9-1.9,3.7-3.5l16.5-32.9h31.9l10.3,31.9c0.5,1.5,1.4,2.8,2.6,3.7v159.8c-1.1,0.7-2,1.7-2.6,2.9l-18.6,37
		c-0.8,1.5-1,3.3-0.6,4.9h-27.4C466.7,553.3,466.6,552,466.2,550.7z M524.2,523.4h78.5l7.2,22.1h-96.8L524.2,523.4z M596.6,508.6
		h-66.1V351.4h66.1V508.6z M603.9,336.6h-78.5l-7.2-22.1H615L603.9,336.6z M189.4,254.8c0-7.4,6-13.4,13.4-13.4h389.3
		c7.4,0,13.4,6,13.4,13.4v3.7H189.4V254.8z M165.4,273.4H182h431h14.6v26.1h-0.4H508h-41.9H347h-45.9H182h-16.6V273.4z M289,314.4
		l-11.1,22.1h-78.5l-7.2-22.1H289z M204.4,351.4h66.1v157.1h-66.1V351.4z M198.2,523.4h78.5l7.2,22.1h-96.8L198.2,523.4z
		 M301.2,550.7l-12-37c-0.6-1.9-2-3.5-3.8-4.4V350.8c1.6-0.7,2.9-1.9,3.7-3.5l16.5-32.9h35.9l10.3,31.9c0.5,1.5,1.4,2.8,2.6,3.7
		v159.8c-1.1,0.7-2,1.7-2.6,2.9l-18.6,37c-0.8,1.5-1,3.3-0.6,4.9h-31.4C301.7,553.3,301.6,552,301.2,550.7z M634.6,595.6H172.4
		v-26.1h462.1V595.6z"/>
	<path d="M566.6,614.9h-331c-4.2,0-7.6,3.4-7.6,7.6v21c0,4.2,3.4,7.6,7.6,7.6h331c4.2,0,7.6-3.4,7.6-7.6v-21
		C574.2,618.3,570.8,614.9,566.6,614.9z M558.9,635.9H243.2v-5.7h315.7V635.9z"/>
	<path d="M548.9,656.3H253.3c-4,0-7.2,3.2-7.2,7.2v21c0,4,3.2,7.2,7.2,7.2h295.6c4,0,7.2-3.2,7.2-7.2v-21
		C556.1,659.5,552.8,656.3,548.9,656.3z M541.6,677.3H260.5v-6.6h281.2V677.3z"/>
</g>
</svg>
