<svg width="47" height="46" viewBox="0 0 47 46" fill="none" xmlns="http://www.w3.org/2000/svg">
<path d="M23.5759 0.000344944C36.6386 0.0697433 47.096 10.2964 47.0086 22.9076C46.9133 35.5959 36.3546 45.7493 23.3773 45.6259C10.3244 45.5026 -0.0455237 35.3608 0.000150296 22.7649C-0.000419999 19.7651 0.609914 16.7947 1.79605 14.0246C2.98218 11.2545 4.72071 8.73929 6.91168 6.62371C9.10264 4.50812 11.7028 2.83385 14.5627 1.69717C17.4225 0.560492 20.4856 -0.0161701 23.5759 0.000344944ZM44.0696 22.8247C44.0874 11.8366 34.8097 2.83218 23.4905 2.8476C12.1713 2.86303 3.02257 11.7364 2.9352 22.7515C2.84981 33.701 12.0998 42.7247 23.4646 42.7787C34.758 42.8307 44.0497 33.834 44.0696 22.8247Z" fill="#691B32"/>
<path d="M23.5028 12.7504H36.0135C36.3451 12.7504 36.7681 12.6463 36.9865 12.8025C37.4473 13.136 38.0748 13.5832 38.1204 14.0324C38.1661 14.4815 37.6776 15.1003 37.2507 15.4415C36.9548 15.6787 36.367 15.6093 35.9082 15.6093C27.6393 15.617 19.3696 15.617 11.0993 15.6093C9.51068 15.6093 8.77592 15.1215 8.81167 14.1114C8.84543 13.1475 9.52458 12.7446 11.1053 12.7446L23.5028 12.7504Z" fill="#691B32"/>
<path d="M23.4193 24.1626H10.9086C10.611 24.185 10.3117 24.1734 10.017 24.1279C9.30603 23.9621 8.84929 23.5207 8.81355 22.7785C8.7778 22.0363 9.19085 21.5582 9.89185 21.3443C10.214 21.2731 10.5452 21.2484 10.8748 21.271C19.2802 21.271 27.6868 21.271 36.0948 21.271C36.3597 21.2523 36.6259 21.26 36.8891 21.2941C37.6954 21.4541 38.2117 21.9206 38.1879 22.7496C38.164 23.5785 37.6497 24.0296 36.8256 24.1453C36.5614 24.1674 36.296 24.1713 36.0313 24.1568L23.4193 24.1626Z" fill="#691B32"/>
<path d="M23.5029 32.6986H11.0994C10.7682 32.7099 10.4366 32.7009 10.1065 32.6716C9.31218 32.5714 8.84948 32.0933 8.8197 31.3222C8.78991 30.5511 9.21686 30.048 10.0112 29.8995C10.3706 29.8467 10.7342 29.8267 11.0974 29.8398C19.3638 29.8398 27.6321 29.8398 35.9024 29.8398C37.491 29.8398 38.2278 30.3159 38.194 31.3261C38.1603 32.2899 37.4851 32.6947 35.9024 32.6947L23.5029 32.6986Z" fill="#691B32"/>
</svg>
